# xmcd
#
# Track frame offsets:
#	150
#	18388
#	32747
#	50121
#	66339
#	82854
#	98418
#	114841
#	132613
#	148146
#	163866
#	176664
#	191638
#	206741
#	224640
#	239256
#	254958
#	272892
#	288990
#	302428
#	316511
#
# Disc length: 4381 seconds
#
# Revision: 1
# Processed by: cddbd v1.5.2PL0 Copyright (c) Steve Scherf et al.
# Submitted via: audiograbber 1.83.01
#
DISCID=3f111b15
DTITLE=CDX 452 - CDX 452
DYEAR=2008
DGENRE=Country
TTITLE0=Rascal Flatts - Bob That Head
TTITLE1=Gretchen Wilson - Don't Do Me No Good
TTITLE2=Little Big Town - Fine Line
TTITLE3=Phil Vassar - I Would
TTITLE4=Pat Green - Let Me
TTITLE5=John Mellencamp - My Sweet Love
TTITLE6=Buddy Jewell - This Ain't Mexico
TTITLE7=Del McCoury Band - Moneyland
TTITLE8=Katie Armiger - Unseen
TTITLE9=Sara Lynn - A Love Like This
TTITLE10=Crystal Sands - Hank You
TTITLE11=Vince Hatfield - I Always Said you'd Be Back
TTITLE12=River Country - Rockin' The Country
TTITLE13=Craig Hand - Satisfy You
TTITLE14=Matt Stillwell - Shine
TTITLE15=Brynn Marie - Start Now
TTITLE16=Shane Wyatt - The Big Bad Dog
TTITLE17=Earl Parker - The Rebel In Me
TTITLE18=Mark Alan Thompson - Too Old To Grow Up Now
TTITLE19=Mickey Utley - Putsumstankonit
TTITLE20=Robert Allen Mycko - Go Ugly Early
EXTD=
EXTT0=
EXTT1=
EXTT2=
EXTT3=
EXTT4=
EXTT5=
EXTT6=
EXTT7=
EXTT8=
EXTT9=
EXTT10=
EXTT11=
EXTT12=
EXTT13=
EXTT14=
EXTT15=
EXTT16=
EXTT17=
EXTT18=
EXTT19=
EXTT20=
PLAYORDER=
